<svg width="1440" height="900" viewBox="0 0 1440 900" fill="none" xmlns="http://www.w3.org/2000/svg">
  <defs>
    <linearGradient id="bg" x1="120" y1="80" x2="1320" y2="820" gradientUnits="userSpaceOnUse">
      <stop stop-color="#0F172A"/>
      <stop offset="0.55" stop-color="#111827"/>
      <stop offset="1" stop-color="#0B1220"/>
    </linearGradient>
    <linearGradient id="glow" x1="180" y1="130" x2="1260" y2="760" gradientUnits="userSpaceOnUse">
      <stop stop-color="#34D399" stop-opacity="0.22"/>
      <stop offset="0.5" stop-color="#38BDF8" stop-opacity="0.14"/>
      <stop offset="1" stop-color="#F59E0B" stop-opacity="0.16"/>
    </linearGradient>
  </defs>
  <rect width="1440" height="900" rx="32" fill="url(#bg)"/>
  <rect x="42" y="42" width="1356" height="816" rx="28" fill="#0B1020" stroke="#1F2937" stroke-width="2"/>
  <rect x="42" y="42" width="1356" height="816" rx="28" fill="url(#glow)" opacity="0.45"/>
  <rect x="42" y="42" width="1356" height="74" rx="28" fill="#0E162A"/>
  <circle cx="86" cy="79" r="7" fill="#F87171"/>
  <circle cx="112" cy="79" r="7" fill="#FBBF24"/>
  <circle cx="138" cy="79" r="7" fill="#4ADE80"/>
  <text x="186" y="88" fill="#F8FAFC" font-size="28" font-family="Segoe UI, Arial, sans-serif" font-weight="700">LMCD 1m26c1ea</text>
  <text x="382" y="88" fill="#94A3B8" font-size="17" font-family="Segoe UI, Arial, sans-serif">Local Minecraft control deck for Paper, Fabric, and Vanilla servers</text>

  <rect x="74" y="144" width="300" height="680" rx="24" fill="#0D1527" stroke="#243041"/>
  <text x="102" y="186" fill="#E2E8F0" font-size="18" font-family="Segoe UI, Arial, sans-serif" font-weight="700">Servers</text>
  <rect x="94" y="214" width="260" height="112" rx="20" fill="#122033" stroke="#2DD4BF" stroke-width="2"/>
  <text x="118" y="252" fill="#F8FAFC" font-size="22" font-family="Segoe UI, Arial, sans-serif" font-weight="700">Paper Hardcore</text>
  <text x="118" y="282" fill="#94A3B8" font-size="15" font-family="Segoe UI, Arial, sans-serif">Paper 1.21.11  |  Hardcore Ironman</text>
  <rect x="118" y="294" width="104" height="18" rx="9" fill="#123E34"/>
  <text x="134" y="307" fill="#6EE7B7" font-size="12" font-family="Segoe UI, Arial, sans-serif" font-weight="700">RUNNING</text>
  <rect x="94" y="344" width="260" height="96" rx="20" fill="#111B2E" stroke="#243041"/>
  <text x="118" y="381" fill="#F8FAFC" font-size="20" font-family="Segoe UI, Arial, sans-serif" font-weight="700">Fabric Test Realm</text>
  <text x="118" y="409" fill="#94A3B8" font-size="15" font-family="Segoe UI, Arial, sans-serif">Fabric 1.21.11  |  Survival Locked</text>
  <rect x="94" y="458" width="260" height="96" rx="20" fill="#111B2E" stroke="#243041"/>
  <text x="118" y="495" fill="#F8FAFC" font-size="20" font-family="Segoe UI, Arial, sans-serif" font-weight="700">Vanilla Build Lab</text>
  <text x="118" y="523" fill="#94A3B8" font-size="15" font-family="Segoe UI, Arial, sans-serif">Vanilla 1.20.4  |  Adventure Locked</text>
  <rect x="94" y="758" width="260" height="46" rx="16" fill="#101B2E" stroke="#243041"/>
  <text x="155" y="787" fill="#CBD5E1" font-size="15" font-family="Segoe UI, Arial, sans-serif" font-weight="700">+ Create new server</text>

  <rect x="402" y="144" width="960" height="164" rx="24" fill="#0D1527" stroke="#243041"/>
  <text x="432" y="186" fill="#E2E8F0" font-size="18" font-family="Segoe UI, Arial, sans-serif" font-weight="700">Active server</text>
  <text x="432" y="230" fill="#F8FAFC" font-size="30" font-family="Segoe UI, Arial, sans-serif" font-weight="700">Paper Hardcore</text>
  <text x="432" y="260" fill="#94A3B8" font-size="16" font-family="Segoe UI, Arial, sans-serif">MOTD: Hardcore no-cheat world with managed backups</text>
  <rect x="432" y="278" width="136" height="16" rx="8" fill="#133B31"/>
  <text x="448" y="290" fill="#86EFAC" font-size="11" font-family="Segoe UI, Arial, sans-serif" font-weight="700">CHEAT GUARD ON</text>
  <rect x="970" y="172" width="156" height="52" rx="18" fill="#0F4F43"/>
  <text x="1012" y="204" fill="#ECFDF5" font-size="18" font-family="Segoe UI, Arial, sans-serif" font-weight="700">Start</text>
  <rect x="1142" y="172" width="156" height="52" rx="18" fill="#2B1220" stroke="#6B2134"/>
  <text x="1186" y="204" fill="#FCA5A5" font-size="18" font-family="Segoe UI, Arial, sans-serif" font-weight="700">Stop</text>

  <rect x="402" y="336" width="446" height="488" rx="24" fill="#0D1527" stroke="#243041"/>
  <text x="432" y="378" fill="#E2E8F0" font-size="18" font-family="Segoe UI, Arial, sans-serif" font-weight="700">Live console</text>
  <rect x="432" y="398" width="386" height="390" rx="18" fill="#09111F" stroke="#1E293B"/>
  <text x="454" y="434" fill="#6EE7B7" font-size="14" font-family="Consolas, monospace">[LMCD] Paper 1.21.11 ready.</text>
  <text x="454" y="466" fill="#A5F3FC" font-size="14" font-family="Consolas, monospace">[Server thread/INFO]: Preparing spawn area...</text>
  <text x="454" y="498" fill="#F8FAFC" font-size="14" font-family="Consolas, monospace">[Server thread/INFO]: Done (4.331s)! For help, type "help"</text>
  <text x="454" y="530" fill="#94A3B8" font-size="14" font-family="Consolas, monospace">&gt; save-all</text>
  <text x="454" y="562" fill="#FDE68A" font-size="14" font-family="Consolas, monospace">[Server thread/INFO]: Saved the game</text>
  <rect x="432" y="738" width="274" height="34" rx="12" fill="#0D1728" stroke="#233146"/>
  <text x="452" y="760" fill="#64748B" font-size="14" font-family="Segoe UI, Arial, sans-serif">Type a safe admin command...</text>
  <rect x="722" y="738" width="96" height="34" rx="12" fill="#122B4A"/>
  <text x="754" y="760" fill="#DBEAFE" font-size="14" font-family="Segoe UI, Arial, sans-serif" font-weight="700">Send</text>

  <rect x="876" y="336" width="486" height="234" rx="24" fill="#0D1527" stroke="#243041"/>
  <text x="906" y="378" fill="#E2E8F0" font-size="18" font-family="Segoe UI, Arial, sans-serif" font-weight="700">Stats and launch controls</text>
  <rect x="906" y="404" width="128" height="116" rx="18" fill="#101A2E"/>
  <text x="934" y="438" fill="#94A3B8" font-size="13" font-family="Segoe UI, Arial, sans-serif">CPU</text>
  <text x="934" y="484" fill="#F8FAFC" font-size="34" font-family="Segoe UI, Arial, sans-serif" font-weight="700">12.4%</text>
  <rect x="1054" y="404" width="128" height="116" rx="18" fill="#101A2E"/>
  <text x="1082" y="438" fill="#94A3B8" font-size="13" font-family="Segoe UI, Arial, sans-serif">RAM</text>
  <text x="1082" y="484" fill="#F8FAFC" font-size="34" font-family="Segoe UI, Arial, sans-serif" font-weight="700">3.8 GB</text>
  <rect x="1202" y="404" width="128" height="116" rx="18" fill="#101A2E"/>
  <text x="1230" y="438" fill="#94A3B8" font-size="13" font-family="Segoe UI, Arial, sans-serif">Players</text>
  <text x="1256" y="484" fill="#F8FAFC" font-size="34" font-family="Segoe UI, Arial, sans-serif" font-weight="700">2 / 8</text>
  <text x="906" y="546" fill="#94A3B8" font-size="14" font-family="Segoe UI, Arial, sans-serif">Launch RAM</text>
  <rect x="1010" y="528" width="152" height="38" rx="12" fill="#101A2E"/>
  <text x="1032" y="552" fill="#E2E8F0" font-size="15" font-family="Segoe UI, Arial, sans-serif">2048 MB / 4096 MB</text>
  <text x="1182" y="546" fill="#94A3B8" font-size="14" font-family="Segoe UI, Arial, sans-serif">Port</text>
  <rect x="1228" y="528" width="102" height="38" rx="12" fill="#101A2E"/>
  <text x="1255" y="552" fill="#E2E8F0" font-size="15" font-family="Segoe UI, Arial, sans-serif">25565</text>

  <rect x="876" y="590" width="486" height="234" rx="24" fill="#0D1527" stroke="#243041"/>
  <text x="906" y="632" fill="#E2E8F0" font-size="18" font-family="Segoe UI, Arial, sans-serif" font-weight="700">Backups</text>
  <text x="906" y="660" fill="#94A3B8" font-size="14" font-family="Segoe UI, Arial, sans-serif">Hardcore policy keeps 4 backups and auto-saves every 3 starts.</text>
  <rect x="906" y="684" width="424" height="46" rx="16" fill="#101A2E"/>
  <text x="930" y="713" fill="#F8FAFC" font-size="15" font-family="Segoe UI, Arial, sans-serif">2026-03-01  |  auto-start-3  |  512 MB</text>
  <rect x="906" y="744" width="424" height="46" rx="16" fill="#101A2E"/>
  <text x="930" y="773" fill="#F8FAFC" font-size="15" font-family="Segoe UI, Arial, sans-serif">2026-02-29  |  before-mods-install  |  498 MB</text>
</svg>
